<mxfile host="app.diagrams.net" modified="2023-10-09T08:37:50.474Z" agent="Mozilla/5.0 (Windows NT 10.0; Win64; x64) AppleWebKit/537.36 (KHTML, like Gecko) Chrome/117.0.0.0 Safari/537.36" etag="g9ttgIdjm4KLQMLvnYTT" version="22.0.4" type="github">
  <diagram name="第 1 页" id="-qkDCahV-xl8vOhy8EF7">
    <mxGraphModel dx="1434" dy="758" grid="1" gridSize="10" guides="1" tooltips="1" connect="1" arrows="1" fold="1" page="1" pageScale="1" pageWidth="827" pageHeight="1169" math="0" shadow="0">
      <root>
        <mxCell id="0" />
        <mxCell id="1" parent="0" />
        <mxCell id="wygbjEPUWeLOxIdQibc3-1" value="结束" style="rounded=1;whiteSpace=wrap;html=1;" vertex="1" parent="1">
          <mxGeometry x="250" y="800" width="120" height="60" as="geometry" />
        </mxCell>
        <mxCell id="wygbjEPUWeLOxIdQibc3-4" style="edgeStyle=orthogonalEdgeStyle;rounded=0;orthogonalLoop=1;jettySize=auto;html=1;exitX=0.5;exitY=1;exitDx=0;exitDy=0;entryX=0.5;entryY=0;entryDx=0;entryDy=0;" edge="1" parent="1" source="wygbjEPUWeLOxIdQibc3-2" target="wygbjEPUWeLOxIdQibc3-3">
          <mxGeometry relative="1" as="geometry" />
        </mxCell>
        <mxCell id="wygbjEPUWeLOxIdQibc3-2" value="开始" style="rounded=1;whiteSpace=wrap;html=1;" vertex="1" parent="1">
          <mxGeometry x="250" y="220" width="120" height="60" as="geometry" />
        </mxCell>
        <mxCell id="wygbjEPUWeLOxIdQibc3-6" style="edgeStyle=orthogonalEdgeStyle;rounded=0;orthogonalLoop=1;jettySize=auto;html=1;exitX=0.5;exitY=1;exitDx=0;exitDy=0;entryX=0.5;entryY=0;entryDx=0;entryDy=0;" edge="1" parent="1" source="wygbjEPUWeLOxIdQibc3-3" target="wygbjEPUWeLOxIdQibc3-5">
          <mxGeometry relative="1" as="geometry" />
        </mxCell>
        <mxCell id="wygbjEPUWeLOxIdQibc3-3" value="判断table数组容量是否为0，若为0则进行初始化扩容" style="rounded=0;whiteSpace=wrap;html=1;" vertex="1" parent="1">
          <mxGeometry x="250" y="310" width="120" height="60" as="geometry" />
        </mxCell>
        <mxCell id="wygbjEPUWeLOxIdQibc3-9" value="" style="edgeStyle=orthogonalEdgeStyle;rounded=0;orthogonalLoop=1;jettySize=auto;html=1;" edge="1" parent="1" source="wygbjEPUWeLOxIdQibc3-5" target="wygbjEPUWeLOxIdQibc3-8">
          <mxGeometry relative="1" as="geometry" />
        </mxCell>
        <mxCell id="wygbjEPUWeLOxIdQibc3-5" value="计算下标=key.hashCode &amp;amp; (n - 1)" style="rounded=0;whiteSpace=wrap;html=1;" vertex="1" parent="1">
          <mxGeometry x="235" y="410" width="150" height="70" as="geometry" />
        </mxCell>
        <mxCell id="wygbjEPUWeLOxIdQibc3-11" style="edgeStyle=orthogonalEdgeStyle;rounded=0;orthogonalLoop=1;jettySize=auto;html=1;exitX=1;exitY=0.5;exitDx=0;exitDy=0;entryX=0;entryY=0.5;entryDx=0;entryDy=0;" edge="1" parent="1" source="wygbjEPUWeLOxIdQibc3-8" target="wygbjEPUWeLOxIdQibc3-10">
          <mxGeometry relative="1" as="geometry" />
        </mxCell>
        <mxCell id="wygbjEPUWeLOxIdQibc3-18" value="否" style="edgeLabel;html=1;align=center;verticalAlign=middle;resizable=0;points=[];" vertex="1" connectable="0" parent="wygbjEPUWeLOxIdQibc3-11">
          <mxGeometry x="-0.1837" y="3" relative="1" as="geometry">
            <mxPoint as="offset" />
          </mxGeometry>
        </mxCell>
        <mxCell id="wygbjEPUWeLOxIdQibc3-16" style="edgeStyle=orthogonalEdgeStyle;rounded=0;orthogonalLoop=1;jettySize=auto;html=1;exitX=0.5;exitY=1;exitDx=0;exitDy=0;entryX=0.5;entryY=0;entryDx=0;entryDy=0;" edge="1" parent="1" source="wygbjEPUWeLOxIdQibc3-8" target="wygbjEPUWeLOxIdQibc3-13">
          <mxGeometry relative="1" as="geometry" />
        </mxCell>
        <mxCell id="wygbjEPUWeLOxIdQibc3-17" value="是" style="edgeLabel;html=1;align=center;verticalAlign=middle;resizable=0;points=[];" vertex="1" connectable="0" parent="wygbjEPUWeLOxIdQibc3-16">
          <mxGeometry x="-0.1333" y="-2" relative="1" as="geometry">
            <mxPoint as="offset" />
          </mxGeometry>
        </mxCell>
        <mxCell id="wygbjEPUWeLOxIdQibc3-8" value="下标处是否有node" style="rhombus;whiteSpace=wrap;html=1;" vertex="1" parent="1">
          <mxGeometry x="255" y="505" width="110" height="80" as="geometry" />
        </mxCell>
        <mxCell id="wygbjEPUWeLOxIdQibc3-22" style="edgeStyle=orthogonalEdgeStyle;rounded=0;orthogonalLoop=1;jettySize=auto;html=1;exitX=0.5;exitY=1;exitDx=0;exitDy=0;entryX=1;entryY=0.5;entryDx=0;entryDy=0;" edge="1" parent="1" source="wygbjEPUWeLOxIdQibc3-10" target="wygbjEPUWeLOxIdQibc3-19">
          <mxGeometry relative="1" as="geometry" />
        </mxCell>
        <mxCell id="wygbjEPUWeLOxIdQibc3-10" value="直接插入" style="rounded=0;whiteSpace=wrap;html=1;" vertex="1" parent="1">
          <mxGeometry x="414" y="515" width="120" height="60" as="geometry" />
        </mxCell>
        <mxCell id="wygbjEPUWeLOxIdQibc3-12" style="edgeStyle=orthogonalEdgeStyle;rounded=0;orthogonalLoop=1;jettySize=auto;html=1;exitX=0.5;exitY=1;exitDx=0;exitDy=0;" edge="1" parent="1" source="wygbjEPUWeLOxIdQibc3-10" target="wygbjEPUWeLOxIdQibc3-10">
          <mxGeometry relative="1" as="geometry" />
        </mxCell>
        <mxCell id="wygbjEPUWeLOxIdQibc3-20" style="edgeStyle=orthogonalEdgeStyle;rounded=0;orthogonalLoop=1;jettySize=auto;html=1;exitX=0.5;exitY=1;exitDx=0;exitDy=0;entryX=0.5;entryY=0;entryDx=0;entryDy=0;" edge="1" parent="1" source="wygbjEPUWeLOxIdQibc3-13" target="wygbjEPUWeLOxIdQibc3-19">
          <mxGeometry relative="1" as="geometry" />
        </mxCell>
        <mxCell id="wygbjEPUWeLOxIdQibc3-13" value="查找key是否在map中已经存在映射，若是则替换oldValue,若否则插入新的node" style="rounded=0;whiteSpace=wrap;html=1;" vertex="1" parent="1">
          <mxGeometry x="250" y="620" width="120" height="60" as="geometry" />
        </mxCell>
        <mxCell id="wygbjEPUWeLOxIdQibc3-21" style="edgeStyle=orthogonalEdgeStyle;rounded=0;orthogonalLoop=1;jettySize=auto;html=1;exitX=0.5;exitY=1;exitDx=0;exitDy=0;entryX=0.5;entryY=0;entryDx=0;entryDy=0;" edge="1" parent="1" source="wygbjEPUWeLOxIdQibc3-19" target="wygbjEPUWeLOxIdQibc3-1">
          <mxGeometry relative="1" as="geometry" />
        </mxCell>
        <mxCell id="wygbjEPUWeLOxIdQibc3-19" value="判断map中元素总个数是否超过阈值，若是则进行扩容" style="rounded=0;whiteSpace=wrap;html=1;" vertex="1" parent="1">
          <mxGeometry x="250" y="710" width="120" height="60" as="geometry" />
        </mxCell>
      </root>
    </mxGraphModel>
  </diagram>
</mxfile>
